# xmcd
#
# Track frame offsets:
#	150
#	17817
#	34126
#	51827
#	62978
#	76984
#	92694
#	100715
#	112158
#	128056
#	141437
#	152350
#	161570
#	172999
#	185784
#	198752
#	212666
#	227096
#	235759
#	247623
#	257704
#
# Disc length: 3632 seconds
#
# Revision: 3
# Processed by: cddbd v1.4PL0 Copyright (c) Steve Scherf et al.
# Submitted via: EasyCDDAExtractor 5.0.7
#
DISCID=150e2e15
DTITLE=John Marshall Family - CD Collection (Volume 1)
DYEAR=2001
DGENRE=bluegrass
TTITLE0=Work ForThe Night Is Coming-We'll Work For Jesus Comes
TTITLE1=Did You Think to Pray
TTITLE2=Never The Same
TTITLE3=I'll Break The Chains
TTITLE4=Wounded For Me (Medley)
TTITLE5=God of Our Fathers
TTITLE6=How Firm a Foundation
TTITLE7=All For Me
TTITLE8=Never Let a Chance Go By
TTITLE9=The Sands Of Time Are Sinking
TTITLE10=He Gives Me Joy
TTITLE11=He Has BPut A New Song In My Mouth-Oh Be Joyful
TTITLE12=Be Thou My Vision
TTITLE13=Send the Light
TTITLE14=I'm Going That Way
TTITLE15=Hope Of Earth And Joy Of Heaven (Medley)
TTITLE16=Yes, Lord, Yes
TTITLE17=Hide You in the Blood
TTITLE18=Home of the Soul
TTITLE19=Come Thou Almighty King
TTITLE20=Praise ye the Lord (Medley)
EXTD=YEAR: 2001  ID3G:  17
EXTT0=
EXTT1=
EXTT2=
EXTT3=
EXTT4=
EXTT5=
EXTT6=
EXTT7=
EXTT8=
EXTT9=
EXTT10=
EXTT11=
EXTT12=
EXTT13=
EXTT14=
EXTT15=
EXTT16=
EXTT17=
EXTT18=
EXTT19=
EXTT20=
PLAYORDER=
